<svg xmlns="http://www.w3.org/2000/svg" data-name="Layer 1" viewBox="0 0 64 64" id="click"><path fill="#fcb64d" d="M38,60V54a13.6569,13.6569,0,0,0,4-9.6569V33a3,3,0,0,0-3-3H38V13a3,3,0,0,0-6,0V25a3,3,0,0,0-6,0v2a3,3,0,0,0-6,0v2a3,3,0,0,0-6,0V44.3431A13.6569,13.6569,0,0,0,18,54v6Z"></path><path fill="#ed6d23" d="M35 3a1 1 0 0 0-1 1V6a1 1 0 0 0 2 0V4A1 1 0 0 0 35 3zM42.3638 5.6357a1 1 0 0 0-1.4146 0l-1.414 1.4151a1 1 0 0 0 1.415 1.414L42.3643 7.05A1 1 0 0 0 42.3638 5.6357zM44 11H42a1 1 0 0 0 0 2h2a1 1 0 0 0 0-2zM28 11H26a1 1 0 0 0 0 2h2a1 1 0 0 0 0-2zM30.0508 5.6357A1 1 0 0 0 28.6357 7.05L30.05 8.4648a1 1 0 0 0 1.415-1.414z"></path></svg>